HIERARCHY
ROOT root
{
  OFFSET -106.478 93.8535 28.3245
  CHANNELS 6 Xposition Yposition Zposition Zrotation Xrotation Yrotation
  JOINT rfemur
  {
    OFFSET -6.87808 -8.58224 4.63091
    CHANNELS 6 Xposition Yposition Zposition Zrotation Xrotation Yrotation
    JOINT rtibia
    {
      OFFSET 1.05643e-005 -39.9586 0
      CHANNELS 6 Xposition Yposition Zposition Zrotation Xrotation Yrotation
      JOINT rfoot
      {
        OFFSET 0 -32.7363 0
        CHANNELS 6 Xposition Yposition Zposition Zrotation Xrotation Yrotation
        JOINT rtoes
        {
          OFFSET 0 -11.385 -7.56517
          CHANNELS 6 Xposition Yposition Zposition Zrotation Xrotation Yrotation
          End Site
          {
            OFFSET 0 -6.46114 0
          }
        }
      }
    }
  }
  JOINT lfemur
  {
    OFFSET 6.18079 -8.58223 4.6309
    CHANNELS 6 Xposition Yposition Zposition Zrotation Xrotation Yrotation
    JOINT ltibia
    {
      OFFSET -1.0381e-005 -39.2652 0
      CHANNELS 6 Xposition Yposition Zposition Zrotation Xrotation Yrotation
      JOINT lfoot
      {
        OFFSET -0.00334357 -31.3814 0
        CHANNELS 6 Xposition Yposition Zposition Zrotation Xrotation Yrotation
        JOINT ltoes
        {
          OFFSET 0 -9.94555 -8.16007
          CHANNELS 6 Xposition Yposition Zposition Zrotation Xrotation Yrotation
          End Site
          {
            OFFSET 0 -5.95839 0
          }
        }
      }
    }
  }
}
MOTION
Frames:	16
Frame Time:	0.00833333
-107.059 93.8886 28.4689 -9.53312 -1.89219 94.4104 -6.87808 -8.58224 4.63091 -1.23477 -7.29683 -16.8134 1.05643e-005 -39.9586 0 -0 11.1548 0 8.65485e-006 -32.7363 0 133.031 -74.7026 132.001 2.3106e-006 -11.385 -7.56517 0 2.78299e-014 -0 6.18079 -8.58223 4.6309 4.18337 -10.0008 12.1288 -1.0381e-005 -39.2652 0 -0 10.0727 0 -0.00334357 -31.3814 0 -96.6662 -72.614 -96.3642 -2.72415e-008 -9.94555 -8.16007 0 3.81667e-014 -0 
-107.059 93.8886 28.4689 -9.53843 -1.89398 94.3887 -6.87808 -8.58224 4.63091 -1.22601 -7.2997 -16.7835 1.05643e-005 -39.9586 0 -0 11.1438 0 8.65485e-006 -32.7363 0 133.033 -74.7145 132.005 2.3106e-006 -11.385 -7.56517 0 2.78299e-014 -0 6.18079 -8.58223 4.6309 4.1908 -10.0028 12.142 -1.0381e-005 -39.2652 0 -0 10.082 0 -0.00334357 -31.3814 0 -96.7019 -72.6143 -96.3983 -2.72415e-008 -9.94555 -8.16007 0 3.81667e-014 -0 
-107.059 93.8886 28.4689 -9.53685 -1.89381 94.3627 -6.87808 -8.58224 4.63091 -1.21659 -7.3029 -16.752 1.05643e-005 -39.9586 0 -0 11.1317 0 8.65485e-006 -32.7363 0 133.035 -74.728 132.009 2.3106e-006 -11.385 -7.56517 0 2.78299e-014 -0 6.18079 -8.58223 4.6309 4.19907 -10.0061 12.1575 -1.0381e-005 -39.2652 0 -0 10.0927 0 -0.00334357 -31.3814 0 -96.7403 -72.6121 -96.4349 -2.72415e-008 -9.94555 -8.16007 0 3.81667e-014 -0 
-107.059 93.8886 28.4689 -9.53949 -1.88753 94.3395 -6.87808 -8.58224 4.63091 -1.2085 -7.30544 -16.7238 1.05643e-005 -39.9586 0 -0 11.1217 0 8.65485e-006 -32.7363 0 133.037 -74.7384 132.012 2.3106e-006 -11.385 -7.56517 0 2.78299e-014 -0 6.18079 -8.58223 4.6309 4.20568 -10.0068 12.1684 -1.0381e-005 -39.2652 0 -0 10.1007 0 -0.00334357 -31.3814 0 -96.7734 -72.615 -96.4667 -2.72415e-008 -9.94555 -8.16007 0 3.81667e-014 -0 
-107.059 93.8886 28.4689 -9.53505 -1.90062 94.3361 -6.87808 -8.58224 4.63091 -1.20375 -7.30635 -16.7039 1.05643e-005 -39.9586 0 -0 11.1167 0 8.65485e-006 -32.7363 0 133.038 -74.7414 132.014 2.3106e-006 -11.385 -7.56517 0 2.78299e-014 -0 6.18079 -8.58223 4.6309 4.20818 -10.0012 12.1681 -1.0381e-005 -39.2652 0 -0 10.1022 0 -0.00334357 -31.3814 0 -96.7936 -72.6309 -96.4866 -2.72415e-008 -9.94555 -8.16007 0 3.81667e-014 -0 
-107.059 93.8886 28.4689 -9.54091 -1.88804 94.3124 -6.87808 -8.58224 4.63091 -1.20327 -7.30462 -16.6959 1.05643e-005 -39.9586 0 -0 11.1193 0 8.65485e-006 -32.7363 0 133.035 -74.7316 132.009 2.3106e-006 -11.385 -7.56517 0 2.78299e-014 -0 6.18079 -8.58223 4.6309 4.20526 -9.9847 12.15 -1.0381e-005 -39.2652 0 -0 10.0939 0 -0.00334357 -31.3814 0 -96.7986 -72.6695 -96.4927 -2.72415e-008 -9.94555 -8.16007 0 3.81667e-014 -0 
-107.059 93.8886 28.4689 -9.54896 -1.89409 94.296 -6.87808 -8.58224 4.63091 -1.20588 -7.30102 -16.6966 1.05643e-005 -39.9586 0 -0 11.1272 0 8.65485e-006 -32.7363 0 133.028 -74.7129 132 2.3106e-006 -11.385 -7.56517 0 2.78299e-014 -0 6.18079 -8.58223 4.6309 4.19848 -9.96043 12.1193 -1.0381e-005 -39.2652 0 -0 10.0787 0 -0.00334357 -31.3814 0 -96.7926 -72.724 -96.4888 -2.72415e-008 -9.94555 -8.16007 0 3.81667e-014 -0 
-107.057 93.8886 28.4689 -9.52711 -1.89353 94.2878 -6.87808 -8.58224 4.63091 -1.21033 -7.29724 -16.6999 1.05643e-005 -39.9586 0 -0 11.1364 0 8.65485e-006 -32.7363 0 133.027 -74.6941 131.996 2.3106e-006 -11.385 -7.56517 0 2.78299e-014 -0 6.18079 -8.58223 4.6309 4.18962 -9.93641 12.0867 -1.0381e-005 -39.2652 0 -0 10.0616 0 -0.00334357 -31.3814 0 -96.7774 -72.7777 -96.4762 -2.72415e-008 -9.94555 -8.16007 0 3.81667e-014 -0 
-107.055 93.8886 28.4689 -9.5169 -1.88183 94.2665 -6.87808 -8.58224 4.63091 -1.21543 -7.29497 -16.7 1.05643e-005 -39.9586 0 -0 11.1427 0 8.65485e-006 -32.7363 0 133.04 -74.6842 132.008 2.3106e-006 -11.385 -7.56517 0 2.78299e-014 -0 6.18079 -8.58223 4.6309 4.1804 -9.9206 12.0627 -1.0381e-005 -39.2652 0 -0 10.0475 0 -0.00334357 -31.3814 0 -96.755 -72.814 -96.456 -2.72415e-008 -9.94555 -8.16007 0 3.81667e-014 -0 
-107.054 93.8886 28.4689 -9.50357 -1.869 94.2542 -6.87808 -8.58224 4.63091 -1.22377 -7.29457 -16.6936 1.05643e-005 -39.9586 0 -0 11.1452 0 8.65485e-006 -32.7363 0 133.082 -74.689 132.05 2.3106e-006 -11.385 -7.56517 0 2.78299e-014 -0 6.18079 -8.58223 4.6309 4.16792 -9.91628 12.0517 -1.0381e-005 -39.2652 0 -0 10.0368 0 -0.00334357 -31.3814 0 -96.7173 -72.824 -96.4203 -2.72415e-008 -9.94555 -8.16007 0 3.81667e-014 -0 
-107.053 93.8886 28.4689 -9.51114 -1.88362 94.2473 -6.87808 -8.58224 4.63091 -1.23503 -7.29517 -16.6844 1.05643e-005 -39.9586 0 -0 11.1461 0 8.65485e-006 -32.7363 0 133.144 -74.7025 132.114 2.3106e-006 -11.385 -7.56517 0 2.78299e-014 -0 6.18079 -8.58223 4.6309 4.15236 -9.91882 12.0474 -1.0381e-005 -39.2652 0 -0 10.027 0 -0.00334357 -31.3814 0 -96.6662 -72.8182 -96.3712 -2.72415e-008 -9.94555 -8.16007 0 3.81667e-014 -0 
-107.056 93.8886 28.4689 -9.50207 -1.88325 94.2522 -6.87808 -8.58224 4.63091 -1.24359 -7.29659 -16.6771 1.05643e-005 -39.9586 0 -0 11.1457 0 8.65485e-006 -32.7363 0 133.2 -74.7161 132.172 2.3106e-006 -11.385 -7.56517 0 2.78299e-014 -0 6.18079 -8.58223 4.6309 4.14009 -9.92434 12.045 -1.0381e-005 -39.2652 0 -0 10.0195 0 -0.00334357 -31.3814 0 -96.6186 -72.8083 -96.3254 -2.72415e-008 -9.94555 -8.16007 0 3.81667e-014 -0 
-107.071 93.8886 28.4689 -9.521 -1.83989 94.295 -6.87808 -8.58224 4.63091 -1.24381 -7.29865 -16.676 1.05643e-005 -39.9586 0 -0 11.1443 0 8.65485e-006 -32.7363 0 133.225 -74.7215 132.197 2.3106e-006 -11.385 -7.56517 0 2.78299e-014 -0 6.18079 -8.58223 4.6309 4.13747 -9.92899 12.0394 -1.0381e-005 -39.2652 0 -0 10.0155 0 -0.00334357 -31.3814 0 -96.5915 -72.8062 -96.2993 -2.72415e-008 -9.94555 -8.16007 0 3.81667e-014 -0 
-107.055 93.8886 28.4692 -9.52314 -1.86988 94.279 -6.87808 -8.58224 4.63091 -1.22948 -7.30275 -16.6803 1.05643e-005 -39.9586 0 -0 11.1399 0 8.65485e-006 -32.7363 0 133.207 -74.7186 132.18 2.3106e-006 -11.385 -7.56517 0 2.78299e-014 -0 6.18079 -8.58223 4.6309 4.15031 -9.9337 12.0273 -1.0381e-005 -39.2652 0 -0 10.0158 0 -0.00334357 -31.3814 0 -96.5912 -72.8173 -96.2994 -2.72415e-008 -9.94555 -8.16007 0 3.81667e-014 -0 
-107.062 93.8886 28.4696 -9.51085 -1.89097 94.3095 -6.87808 -8.58224 4.63091 -1.20516 -7.30851 -16.6881 1.05643e-005 -39.9586 0 -0 11.133 0 8.65485e-006 -32.7363 0 133.163 -74.7112 132.135 2.3106e-006 -11.385 -7.56517 0 2.78299e-014 -0 6.18079 -8.58223 4.6309 4.17385 -9.93989 12.0121 -1.0381e-005 -39.2652 0 -0 10.0196 0 -0.00334357 -31.3814 0 -96.6081 -72.8345 -96.3162 -2.72415e-008 -9.94555 -8.16007 0 3.81667e-014 -0 
-107.054 93.8886 28.47 -9.55424 -1.88672 94.2953 -6.87808 -8.58224 4.63091 -1.18145 -7.31306 -16.7033 1.05643e-005 -39.9586 0 -0 11.1277 0 8.65485e-006 -32.7363 0 133.105 -74.6965 132.074 2.3106e-006 -11.385 -7.56517 0 2.78299e-014 -0 6.18079 -8.58223 4.6309 4.19859 -9.94436 11.9987 -1.0381e-005 -39.2652 0 -0 10.0256 0 -0.00334357 -31.3814 0 -96.6349 -72.8508 -96.3424 -2.72415e-008 -9.94555 -8.16007 0 3.81667e-014 -0 
